<svg id="Vrstva_1" data-name="Vrstva 1" xmlns="http://www.w3.org/2000/svg" viewBox="0 0 1179.99 1171.96">
  <defs>
    <style>
      .cls-1 {
        fill: #fc0;
      }

      .cls-2 {
        fill: #50596f;
      }
    </style>
  </defs>
  <title>Stamp GDPR positive</title>
  <polygon class="cls-1" points="589.99 0 570.61 59.64 507.91 59.64 558.64 96.5 539.26 156.13 589.99 119.27 640.73 156.13 621.34 96.5 672.08 59.64 609.37 59.64 589.99 0"/>
  <polygon class="cls-1" points="570.62 1075.46 507.91 1075.46 558.64 1112.32 539.27 1171.96 590 1135.1 640.73 1171.96 621.35 1112.32 672.08 1075.46 609.38 1075.46 590 1015.83 570.62 1075.46"/>
  <polygon class="cls-1" points="843.95 68.05 863.33 127.69 926.03 127.69 875.3 164.55 894.68 224.18 843.95 187.32 793.22 224.18 812.6 164.55 761.87 127.69 824.57 127.69 843.95 68.05"/>
  <polygon class="cls-1" points="1078.53 567.55 1015.83 567.55 1066.55 604.41 1047.18 664.05 1097.9 627.19 1148.63 664.05 1129.26 604.41 1179.99 567.55 1117.28 567.55 1097.9 507.91 1078.53 567.55"/>
  <polygon class="cls-1" points="1029.86 761.87 1049.24 821.51 1111.94 821.51 1061.21 858.37 1080.59 918 1029.86 881.15 979.13 918 998.51 858.37 947.78 821.51 1010.48 821.51 1029.86 761.87"/>
  <polygon class="cls-1" points="843.95 947.78 863.33 1007.42 926.03 1007.42 875.3 1044.28 894.68 1103.91 843.95 1067.06 793.22 1103.91 812.6 1044.28 761.87 1007.42 824.57 1007.42 843.95 947.78"/>
  <polygon class="cls-1" points="336.04 947.78 355.42 1007.42 418.12 1007.42 367.39 1044.28 386.77 1103.91 336.04 1067.06 285.31 1103.91 304.69 1044.28 253.96 1007.42 316.66 1007.42 336.04 947.78"/>
  <polygon class="cls-1" points="150.13 761.87 169.51 821.51 232.21 821.51 181.48 858.37 200.86 918 150.13 881.15 99.4 918 118.78 858.37 68.05 821.51 130.75 821.51 150.13 761.87"/>
  <polygon class="cls-1" points="62.7 567.55 0 567.55 50.72 604.41 31.35 664.05 82.08 627.19 132.81 664.05 113.44 604.41 164.16 567.55 101.46 567.55 82.08 507.91 62.7 567.55"/>
  <polygon class="cls-1" points="150.13 253.96 169.51 313.6 232.21 313.6 181.48 350.46 200.86 410.09 150.13 373.24 99.4 410.09 118.78 350.46 68.05 313.6 130.75 313.6 150.13 253.96"/>
  <polygon class="cls-1" points="336.04 68.05 355.42 127.69 418.12 127.69 367.39 164.55 386.77 224.18 336.04 187.32 285.31 224.18 304.69 164.55 253.96 127.69 316.66 127.69 336.04 68.05"/>
  <polygon class="cls-1" points="1029.86 253.96 1049.24 313.6 1111.94 313.6 1061.21 350.46 1080.59 410.09 1029.86 373.24 979.13 410.09 998.51 350.46 947.78 313.6 1010.48 313.6 1029.86 253.96"/>
  <path class="cls-2" d="M919,508.15c0,20.43-9.92,28.54-41.46,28.54-3.31,0-18-.3-21.33-0.59V478.4c3.6-.3,19.23-0.91,23.44-0.91,25.24,0,39.36,8.42,39.36,26.75v3.91Zm58.59,148.13a7.83,7.83,0,0,0-.9-3.31l-45.37-84.73c21.94-8.71,38.76-28.25,38.76-60.09v-3.91c0-53.18-39.36-70.31-90.44-70.31-21.64,0-47.18,1.81-61,3.91-9.31,1.5-13.52,4.2-13.52,14.43V653.88a6,6,0,0,0,6,6h39.06a6,6,0,0,0,6-6V577.55c5.7,0,15,.6,21.33.6l3.31-.3,40.26,76c1.51,3,2.7,6,6,6h46c3.31,0,4.5-1.51,4.5-3.61M730.51,509c0,20.43-11.72,30.35-38.46,30.35-3.31,0-21-.3-24.34-0.6v-61.3c3.61-.3,20.14-0.9,24.34-0.9,25.24,0,38.46,8.42,38.46,29.75V509Zm51.08,0v-2.7c0-56.49-44.78-72.42-90.15-72.42-21.63,0-45.68,1.5-61,3.91-9.31,1.5-13.52,4.2-13.52,14.43V654.17a5.78,5.78,0,0,0,6,5.71h38.76a6,6,0,0,0,6-6v-73c7.52,0.3,17.13.9,24.34,0.9,44.77,0,89.55-16.53,89.55-72.71M537,567.64C537,608.2,519.57,619,492.53,619c-7.51,0-17.12-.3-21.33-0.6V478.09c4.21-.3,13.82-0.6,21.33-0.6,27,0,44.47,10.82,44.47,51.39v38.76Zm51.38,0V528.88c0-63.41-36.06-95-95.85-95-24.94,0-51.68,2.41-64,4.51-5.7.9-8.71,3.6-8.71,10.52V647.56c0,6.92,3,9.62,8.71,10.52,12.32,2.1,39.06,4.51,64,4.51,59.8,0,95.85-31.55,95.85-95m-200.5-90.44V445.34c0-2.7-2.1-3.91-5.11-4.51a285,285,0,0,0-62.8-6.91c-43.57,0-91.35,19.23-91.35,95.85V567c0,76,51.39,95.55,85.64,95.55,30,0,51.08-3,67.31-6.31,4.5-.9,6-2.7,6-6.91v-101a6,6,0,0,0-6-6H343.11a5.78,5.78,0,0,0-5.71,6v69.11c-7.21.6-14.72,0.9-23.14,0.9-14.72,0-33.65-9.61-33.65-51.08V529.78c0-39.36,15-51.08,39.36-51.08,25.54,0,48.07,1.81,62.5,2.41h0.9c2.7,0,4.51-.6,4.51-3.91" transform="translate(-11 -12.29)"/>
  <path class="cls-2" d="M982.32,702.18V696a2.48,2.48,0,0,0-2.67-2.53H912a2.68,2.68,0,0,0-2.81,2.53v6.19c0,1.55,1.27,2.25,2.81,2.25h27.43v90.73a2.68,2.68,0,0,0,2.53,2.81h7.74a2.68,2.68,0,0,0,2.53-2.81V704.43h27.43c1.55,0,2.67-.84,2.67-2.25m-85.69,91.71V696.13a2.55,2.55,0,0,0-2.53-2.67h-7.45a2.64,2.64,0,0,0-2.53,2.67v82.29c0,0.14,0,.42-0.14.42l-0.28-.42-43.18-82.15c-1.13-2.11-1.83-2.81-5.77-2.81H827a4,4,0,0,0-4.08,3.94v98.88c0,1.41,1.13,1.69,2.53,1.69h7.31a2.64,2.64,0,0,0,2.53-2.67V713.15c0-.28,0-0.42.14-0.42a0.6,0.6,0,0,1,.42.42l43.46,82.57c0.7,1.41,2.25,2.25,4.5,2.25h8.72a4.08,4.08,0,0,0,4.08-4.08M785.9,752.39H754.82l12.8-46.28c0.42-1.55,1.27-2.53,2.81-2.53s2.25,1,2.67,2.53Zm24.9,43.32a2.39,2.39,0,0,0-.14-1l-26-91.71c-2.39-8.58-9-10.55-14.21-10.55s-12,2.11-14.35,10.69l-26,91.57a2.39,2.39,0,0,0-.14,1,2.26,2.26,0,0,0,2.39,2.25h8.3a2.84,2.84,0,0,0,2.53-2.11l9-32.35h36.43l9.14,32.35a2.55,2.55,0,0,0,2.39,2.11h8.3a2.18,2.18,0,0,0,2.39-2.25m-93.5-.56v-99a2.56,2.56,0,0,0-2.53-2.67H707a2.55,2.55,0,0,0-2.53,2.67v99A2.68,2.68,0,0,0,707,798h7.74a2.68,2.68,0,0,0,2.53-2.81m-24.78.56v-6.61a1.52,1.52,0,0,0-1.55-1.69H663.83c-14.91,0-17.3-3.94-17.3-14.63V696.27a2.82,2.82,0,0,0-2.81-2.81h-7.17a2.82,2.82,0,0,0-2.81,2.81v76.52c0,23.21,14.91,26.16,30,26.16,13.22,0,23.77-.7,27.43-1.27a2,2,0,0,0,1.41-2m-84.77-70.89c0,14.63-7.31,20.82-26.58,20.82-3.66,0-10.83-.42-14.07-0.56V703.87c3.38-.28,9.71-0.56,14.07-0.56,18.15,0,26.58,5.49,26.58,19.69v1.83Zm12.8,0V723c0-22.65-16.6-30.52-39.38-30.52a225.7,225.7,0,0,0-23.35,1.13c-2.11.28-3.38,1.55-3.38,3.52v98A2.68,2.68,0,0,0,557,798h7.6a2.68,2.68,0,0,0,2.53-2.81V755.63c3.66,0.28,9.56.7,14.07,0.7,22.79,0,39.38-8,39.38-31.51m-83.64,70.33V697.54a4.08,4.08,0,0,0-4.08-4.08h-9.14c-2.53,0-3.66.56-4.5,2.39L496,744.1c-0.56,1.27-1,1.55-1.69,1.55s-1.13-.28-1.69-1.55L469.4,695.85c-0.84-1.83-2-2.39-4.5-2.39h-9.14a4.08,4.08,0,0,0-4.08,4.08v97.62a2.82,2.82,0,0,0,2.81,2.81h6.89a2.82,2.82,0,0,0,2.81-2.81V711.74c0-.28,0-0.42.14-0.42s0.14,0,.28.28l20.11,41.64c1.41,2.81,2.81,4.08,6.33,4.08h6.47c3.52,0,4.92-1.27,6.33-4.08L524,711.6c0.14-.28.14-0.28,0.28-0.28s0.14,0.14.14,0.42v83.41a2.82,2.82,0,0,0,2.81,2.81h6.89a2.82,2.82,0,0,0,2.81-2.81m-113.5-40.37c0,23.63-9.71,32.63-25,32.63s-25.18-9-25.18-32.63V736.64C373.2,713,383,704,398.38,704s25,9,25,32.63v18.15Zm12.94,0V736.64c0-31.23-15.89-44.17-38-44.17s-38.12,12.94-38.12,44.17v18.15c0,31.23,16,44.17,38.12,44.17s38-12.94,38-44.17m-83.41,39.53v-5.77a2,2,0,0,0-2.25-2.25h-0.56c-5.06.42-15.19,1.13-23.21,1.13-13.78,0-24.47-8.3-24.47-31.93V735.94c0-23.91,10.69-31.93,24.47-31.93,8.16,0,18.57.84,23.63,1.27H351c1.41,0,1.69-.7,1.69-1.55v-7.17c0-1.27-1-1.69-2.25-1.83a151.5,151.5,0,0,0-23.63-2.25c-17.3,0-37.13,9-37.13,43.46v19.55c0,34.18,19.83,43.46,37.13,43.46,12,0,17.44-.7,23.35-1.83,1.55-.28,2.81-1.13,2.81-2.81" transform="translate(-11 -12.29)"/>
</svg>
