<?xml version="1.0" encoding="iso-8859-1"?>
<!-- Generator: Adobe Illustrator 19.1.1, SVG Export Plug-In . SVG Version: 6.00 Build 0)  -->
<svg version="1.1" id="Layer_1" xmlns="http://www.w3.org/2000/svg" xmlns:xlink="http://www.w3.org/1999/xlink" x="0px" y="0px"
	 viewBox="0 0 40 40" style="enable-background:new 0 0 40 40;" xml:space="preserve">
<g>
	<path style="fill:#F5C276;" d="M6.372,37.5c-0.476,0-0.863-0.397-0.863-0.885V3.385c0-0.488,0.388-0.885,0.863-0.885h11.18
		C17.518,2.664,17.5,2.831,17.5,3c0,1.378,1.121,2.5,2.5,2.5s2.5-1.122,2.5-2.5c0-0.169-0.018-0.336-0.052-0.5h11.196
		c0.477,0,0.864,0.397,0.864,0.885v33.23c0,0.488-0.388,0.885-0.864,0.885H6.372z"/>
	<path style="fill:#C29653;" d="M33.645,3c0.201,0,0.364,0.173,0.364,0.385v33.231c0,0.212-0.163,0.385-0.364,0.385H6.372
		c-0.201,0-0.364-0.173-0.364-0.385V3.385C6.009,3.173,6.172,3,6.372,3H17c0,1.654,1.346,3,3,3s3-1.346,3-3H33.645 M33.645,2H21.723
		C21.894,2.295,22,2.634,22,3c0,1.105-0.895,2-2,2s-2-0.895-2-2c0-0.366,0.106-0.705,0.277-1H6.372C5.619,2,5.009,2.62,5.009,3.385
		v33.231C5.009,37.38,5.619,38,6.372,38h27.273c0.753,0,1.364-0.62,1.364-1.385V3.385C35.009,2.62,34.398,2,33.645,2L33.645,2z"/>
</g>
<rect x="9.009" y="6" style="fill:#FFFFFF;" width="22" height="28"/>
<g>
	<path style="fill:#66798F;" d="M20.009,1c1.103,0,2,0.897,2,2s-0.897,2-2,2s-2-0.897-2-2S18.906,1,20.009,1 M20.009,0
		c-1.657,0-3,1.343-3,3s1.343,3,3,3s3-1.343,3-3S21.665,0,20.009,0L20.009,0z"/>
</g>
<path style="fill:#66798F;" d="M22.499,3c0,0.242-0.026,0.491-0.103,0.747c-0.247,0.82-0.937,1.479-1.769,1.679
	C18.978,5.821,17.509,4.582,17.509,3H17v5c0,0.552,0.448,1,1,1h4c0.552,0,1-0.448,1-1V3H22.499z"/>
<g>
	<path style="fill:#FFEEA3;" d="M20,19.5c-1.93,0-3.5-1.57-3.5-3.5s1.57-3.5,3.5-3.5s3.5,1.57,3.5,3.5S21.93,19.5,20,19.5z"/>
	<path style="fill:#BA9B48;" d="M20,13c1.654,0,3,1.346,3,3s-1.346,3-3,3s-3-1.346-3-3S18.346,13,20,13 M20,12c-2.209,0-4,1.791-4,4
		s1.791,4,4,4s4-1.791,4-4S22.209,12,20,12L20,12z"/>
</g>
<g>
	<path style="fill:#C2E8FF;" d="M12.517,27.5c0.258-3.903,3.516-7,7.483-7s7.226,3.097,7.483,7H12.517z"/>
	<path style="fill:#7496C4;" d="M20,21c3.52,0,6.442,2.612,6.929,6H13.071C13.558,23.612,16.48,21,20,21 M20,20
		c-4.418,0-8,3.582-8,8h16C28,23.582,24.418,20,20,20L20,20z"/>
</g>
<g>
	<circle style="fill:#BAE0BD;" cx="31" cy="31" r="8.5"/>
	<g>
		<path style="fill:#5E9C76;" d="M31,23c4.411,0,8,3.589,8,8s-3.589,8-8,8s-8-3.589-8-8S26.589,23,31,23 M31,22
			c-4.971,0-9,4.029-9,9s4.029,9,9,9s9-4.029,9-9S35.971,22,31,22L31,22z"/>
	</g>
</g>
<polyline style="fill:none;stroke:#FFFFFF;stroke-width:2;stroke-miterlimit:10;" points="26.821,31.025 29.591,33.794 
	35.821,27.563 "/>
</svg>
